<svg preserveAspectRatio="none" width="100%" height="100%" overflow="visible" style="display: block;" viewBox="0 0 29 24" fill="none" xmlns="http://www.w3.org/2000/svg">
<g id="Frame">
<path id="Vector" d="M2.7377 21.12C1.12659 19.3599 0.159926 17.4399 0.159926 14.24C0.159926 8.64 4.18771 3.67998 9.82658 1.11998L11.2766 3.19998C5.95993 6.07998 4.83214 9.75994 4.50993 12.1599C5.31548 11.6799 6.44326 11.52 7.57104 11.6799C10.4711 12 12.7266 14.24 12.7266 17.28C12.7266 18.72 12.0822 20.16 11.1155 21.2799C9.9877 22.4 8.69883 22.88 7.08771 22.88C5.31548 22.88 3.70437 22.08 2.7377 21.12ZM18.8488 21.12C17.2377 19.3599 16.2711 17.4399 16.2711 14.24C16.2711 8.64 20.2988 3.67998 25.9377 1.11998L27.3877 3.19998C22.0711 6.07998 20.9432 9.75994 20.6211 12.1599C21.4266 11.6799 22.5543 11.52 23.6822 11.6799C26.5822 12 28.8377 14.24 28.8377 17.28C28.8377 18.72 28.1932 20.16 27.2266 21.2799C26.2599 22.4 24.8099 22.88 23.1988 22.88C21.4266 22.88 19.8155 22.08 18.8488 21.12Z" fill="var(--fill-0, #BD711D)"/>
</g>
</svg>
