<svg xmlns="http://www.w3.org/2000/svg" width="48" height="48" viewBox="0 0 48 48" fill="none">
  <defs>
    <linearGradient id="msg_grad" x1="24" y1="4" x2="24" y2="44" gradientUnits="userSpaceOnUse">
      <stop stop-color="#00B2FF"/>
      <stop offset="1" stop-color="#006AFF"/>
    </linearGradient>
  </defs>
  <rect width="48" height="48" rx="24" fill="url(#msg_grad)"/>
  <path d="M24 12c-7.2 0-12.5 5-12.5 11.8 0 3.5 1.4 6.5 3.8 8.6.2.2.3.4.3.7l.1 2.1c0 .7.7 1.1 1.3.8l2.3-1c.2-.1.4-.1.5 0 1.3.4 2.7.6 4.2.6 7.2 0 12.5-5 12.5-11.8S31.2 12 24 12zm1.2 15.9l-3.2-3.4-6.2 3.4 6.8-7.2 3.3 3.4 6.1-3.4-6.8 7.2z" fill="white"/>
</svg>
