<svg xmlns="http://www.w3.org/2000/svg" width="48" height="48" viewBox="0 0 48 48" fill="none">
  <rect width="48" height="48" rx="24" fill="#25D366"/>
  <path d="M33.6 14.4C31 11.8 27.6 10.4 24 10.4c-7.4 0-13.4 6-13.4 13.4 0 2.4.6 4.7 1.8 6.7L10.4 37.6l7.3-1.9c2 1.1 4.2 1.6 6.4 1.6 7.4 0 13.4-6 13.4-13.4 0-3.6-1.4-7-3.9-9.5zM24 35c-2 0-4-.5-5.7-1.5l-.4-.2-4.3 1.1 1.2-4.2-.3-.4c-1.1-1.8-1.7-3.9-1.7-6 0-6.2 5-11.2 11.2-11.2 3 0 5.8 1.2 7.9 3.3 2.1 2.1 3.3 4.9 3.3 7.9C35.2 30 30.2 35 24 35zm6.1-8.4c-.3-.2-1.9-1-2.2-1.1-.3-.1-.5-.2-.7.2s-.8 1.1-1 1.3-.4.2-.7.1c-.3-.2-1.4-.5-2.6-1.6-1-.9-1.6-2-1.8-2.3-.2-.3 0-.5.1-.7.1-.1.3-.4.4-.5.2-.2.2-.3.3-.5s.1-.4 0-.5c-.1-.2-.7-1.7-1-2.3-.2-.6-.5-.5-.7-.5h-.6c-.2 0-.5.1-.8.4-.3.3-1 1-1 2.4s1.1 2.8 1.2 3c.2.2 2.1 3.2 5.1 4.5.7.3 1.3.5 1.7.6.7.2 1.4.2 1.9.1.6-.1 1.9-.8 2.1-1.5.3-.7.3-1.4.2-1.5-.1-.1-.3-.2-.6-.3z" fill="white"/>
</svg>
