<svg fill="none" height="48" viewBox="0 0 48 48" width="48" xmlns="http://www.w3.org/2000/svg"><circle cx="24" cy="24" r="24" fill="#FF0000"/><path d="M30.5 18.5C31.9 16.7 31.5 14.1 29.7 12.7C27.9 11.3 25.3 11.7 23.9 13.5L21.5 16.5C20.1 18.3 20.5 20.9 22.3 22.3L22.8 22.7C21.4 24.5 21.8 27.1 23.6 28.5C25.4 29.9 28 29.5 29.4 27.7L31.8 24.7C33.2 22.9 32.8 20.3 31 18.9L30.5 18.5ZM25.7 26.3C25 27.2 23.7 27.4 22.8 26.7C21.9 26 21.7 24.7 22.4 23.8L24.8 20.8C25.5 19.9 26.8 19.7 27.7 20.4C28.6 21.1 28.8 22.4 28.1 23.3L25.7 26.3Z" fill="white"/><path d="M17.5 29.5C16.1 31.3 16.5 33.9 18.3 35.3C20.1 36.7 22.7 36.3 24.1 34.5L26.5 31.5C27.9 29.7 27.5 27.1 25.7 25.7L25.2 25.3C26.6 23.5 26.2 20.9 24.4 19.5C22.6 18.1 20 18.5 18.6 20.3L16.2 23.3C14.8 25.1 15.2 27.7 17 29.1L17.5 29.5ZM22.3 21.7C23 20.8 24.3 20.6 25.2 21.3C26.1 22 26.3 23.3 25.6 24.2L23.2 27.2C22.5 28.1 21.2 28.3 20.3 27.6C19.4 26.9 19.2 25.6 19.9 24.7L22.3 21.7Z" fill="white"/></svg>