<svg preserveAspectRatio="none" width="100%" height="100%" overflow="visible" style="display: block;" viewBox="0 0 19.1203 22.0001" fill="none" xmlns="http://www.w3.org/2000/svg">
<g id="Group">
<path id="Vector" d="M13.0117 11.8881L15.2118 12.3248C15.2346 13.4039 16.1279 14.2603 17.2071 14.2375C18.2863 14.2147 19.1426 13.3214 19.1198 12.2422C19.097 11.1631 18.2037 10.3067 17.1245 10.3295C16.7533 10.3373 16.3919 10.4508 16.0828 10.6565C15.7737 10.8623 15.5296 11.1518 15.3791 11.4913L13.1219 11.0433C13.1195 10.2173 12.7981 9.42416 12.2247 8.82961L15.1462 4.70245C16.3785 5.28838 17.8524 4.7644 18.4384 3.53211C19.0243 2.29983 18.5003 0.8259 17.268 0.239963C16.0358 -0.345974 14.5618 0.178011 13.9759 1.4103C13.5286 2.35099 13.7193 3.47112 14.4527 4.21076L11.5594 8.29803C10.2288 7.49888 8.51686 7.76746 7.49482 8.93561L3.69638 5.98568C4.19497 5.02596 3.82119 3.84373 2.86147 3.34514C1.90175 2.84655 0.719513 3.22034 0.220924 4.18005C-0.277664 5.13977 0.0961176 6.32201 1.05584 6.8206C1.38615 6.99221 1.75853 7.06613 2.12935 7.03368C2.50017 7.00124 2.85406 6.86377 3.14955 6.6374L7.02126 9.64418C6.37794 10.9585 6.70581 12.5416 7.81823 13.4923L5.46529 16.819C4.21962 16.0631 2.59692 16.4601 1.84096 17.7058C1.08501 18.9515 1.48201 20.5742 2.72773 21.3301C3.97341 22.0861 5.5961 21.6891 6.35206 20.4434C6.93954 19.4753 6.84374 18.2402 6.11393 17.3743L8.53036 13.9569C8.9391 14.1512 9.38431 14.2569 9.83678 14.2671C10.2893 14.2773 10.7388 14.1916 11.1558 14.0158L14.023 18.2513C13.1797 19.1428 13.2189 20.5492 14.1104 21.3924C15.002 22.2357 16.4083 22.1965 17.2516 21.305C18.0948 20.4134 18.0557 19.0071 17.1641 18.1638C16.8427 17.8598 16.438 17.6587 16.0016 17.5862C15.5652 17.5137 15.1172 17.573 14.7147 17.7567L11.8889 13.5823C12.4362 13.1535 12.83 12.5592 13.0117 11.8881Z" fill="var(--fill-0, white)"/>
</g>
</svg>
