<svg preserveAspectRatio="none" width="100%" height="100%" overflow="visible" style="display: block;" viewBox="0 0 22 20.2469" fill="none" xmlns="http://www.w3.org/2000/svg">
<g id="Group">
<path id="Vector" d="M21.0362 8.06395C20.7694 3.57199 17.0307 0 12.473 0H9.52703C4.96934 0 1.23063 3.57199 0.963789 8.06395C0.397461 8.30801 0 8.87219 0 9.52703V12.8498C0 13.7281 0.71457 14.4427 1.59285 14.4427H2.88191V7.93418H2.26574C2.59316 4.21566 5.72473 1.28906 9.52703 1.28906H12.473C16.2753 1.28906 19.4068 4.21566 19.7343 7.93418H19.1181V14.4427H20.4071C21.2854 14.4427 22 13.7281 22 12.8498V9.52703C22 8.87219 21.6025 8.30801 21.0362 8.06395Z" fill="var(--fill-0, white)"/>
<path id="Vector_2" d="M16.0647 5.9168H5.93527C4.96246 5.9168 4.17098 6.70828 4.17098 7.68109V15.7111C4.17098 16.6839 4.96246 17.4754 5.93527 17.4754H8.1443L10.2927 20.0183C10.4152 20.1631 10.5952 20.2469 10.7852 20.2469C10.9751 20.2469 11.1551 20.1631 11.2776 20.0183L13.426 17.4754H16.0647C17.0375 17.4754 17.829 16.6839 17.829 15.7111V7.68109C17.829 6.70828 17.0375 5.9168 16.0647 5.9168ZM13.3555 9.14461C13.7113 9.14461 14.0001 9.43293 14.0001 9.78914C14.0001 10.1449 13.7113 10.4337 13.3555 10.4337C12.9998 10.4337 12.711 10.1449 12.711 9.78914C12.711 9.43293 12.9998 9.14461 13.3555 9.14461ZM8.3716 9.14461C8.72738 9.14461 9.01613 9.43293 9.01613 9.78914C9.01613 10.1449 8.72738 10.4337 8.3716 10.4337C8.01582 10.4337 7.72707 10.1449 7.72707 9.78914C7.72707 9.43293 8.01582 9.14461 8.3716 9.14461ZM14.2128 13.0548C13.2219 13.9335 12.1107 14.373 11 14.373C9.88883 14.373 8.77809 13.9339 7.78723 13.0548C7.52082 12.8189 7.49633 12.4115 7.73266 12.1451C7.96898 11.8787 8.37633 11.8542 8.64273 12.0905C9.39168 12.7548 10.1956 13.087 11 13.087C11.8044 13.087 12.6087 12.7548 13.3577 12.0905C13.6237 11.8542 14.031 11.8787 14.2673 12.1451C14.5037 12.4115 14.4792 12.8189 14.2128 13.0548Z" fill="var(--fill-0, white)"/>
</g>
</svg>
