<svg fill="none" height="48" viewBox="0 0 48 48" width="48" xmlns="http://www.w3.org/2000/svg" xmlns:xlink="http://www.w3.org/1999/xlink"><clipPath id="a"><path d="m0 0h48v48h-48z"/></clipPath><g clip-path="url(#a)"><path d="m24 0c-6.3652 0-12.4697 2.52856-16.97056 7.02944-4.50088 4.50086-7.02944 10.60536-7.02944 16.97056s2.52856 12.4697 7.02944 16.9706c4.50086 4.5008 10.60536 7.0294 16.97056 7.0294s12.4697-2.5286 16.9706-7.0294c4.5008-4.5009 7.0294-10.6054 7.0294-16.9706s-2.5286-12.4697-7.0294-16.97056c-4.5009-4.50088-10.6054-7.02944-16.9706-7.02944z" fill="#039be5"/><path d="m27.2489 30.3613h6.2109l.9752-6.3095h-7.1874v-3.4484c0-2.6211.8564-4.9453 3.3082-4.9453h3.9398v-5.5061c-.6922-.0935-2.1562-.29812-4.9225-.29812-5.7765 0-9.163 3.05052-9.163 10.00042v4.1975h-5.9381v6.3095h5.9381v17.3418c1.176.1769 2.3672.2969 3.5899.2969 1.1053 0 2.184-.1011 3.2489-.2451z" fill="#fff"/></g></svg>