<svg fill="none" height="48" viewBox="0 0 48 48" width="48" xmlns="http://www.w3.org/2000/svg" xmlns:xlink="http://www.w3.org/1999/xlink"><radialGradient id="a" cx="17.8433" cy="48.0346" gradientUnits="userSpaceOnUse" r="59.835"><stop offset="0" stop-color="#fd5"/><stop offset=".328" stop-color="#ff543f"/><stop offset=".348" stop-color="#fc5245"/><stop offset=".504" stop-color="#e64771"/><stop offset=".643" stop-color="#d53e91"/><stop offset=".761" stop-color="#cc39a4"/><stop offset=".841" stop-color="#c837ab"/></radialGradient><radialGradient id="b" cx="0" cy="0" gradientTransform="matrix(39.7305 0 0 26.4724 7.72305 -.600296)" gradientUnits="userSpaceOnUse" r="1"><stop offset="0" stop-color="#4168c9"/><stop offset=".999" stop-color="#4168c9" stop-opacity="0"/></radialGradient><clipPath id="c"><path d="m0 0h48v48h-48z"/></clipPath><g clip-path="url(#c)"><path d="m37.3494 47.9747-26.6532.0253c-5.86368.0053-10.6652493-4.7869-10.6719126-10.6506l-.02532055-26.6532c-.00533064-5.86365 4.78690315-10.6652188 10.65063315-10.6718821l26.6531-.02532054c5.8637-.00533063 10.6653 4.78690264 10.6719 10.65060264l.0254 26.6532c.0066 5.865-4.7869 10.6665-10.6506 10.6719z" fill="url(#a)"/><path d="m37.3494 47.9747-26.6532.0253c-5.86368.0053-10.6652493-4.7869-10.6719126-10.6506l-.02532055-26.6532c-.00533064-5.86365 4.78690315-10.6652188 10.65063315-10.6718821l26.6531-.02532054c5.8637-.00533063 10.6653 4.78690264 10.6719 10.65060264l.0254 26.6532c.0066 5.865-4.7869 10.6665-10.6506 10.6719z" fill="url(#b)"/><g fill="#fff"><path d="m24.0002 33.3288c-5.1428 0-9.3286-4.1846-9.3286-9.3286 0-5.1441 4.1858-9.3286 9.3286-9.3286 5.1427 0 9.3286 4.1845 9.3286 9.3286 0 5.144-4.1859 9.3286-9.3286 9.3286zm0-15.9919c-3.6742 0-6.6633 2.9891-6.6633 6.6633 0 3.6741 2.9891 6.6633 6.6633 6.6633 3.6741 0 6.6633-2.9892 6.6633-6.6633 0-3.6742-2.9892-6.6633-6.6633-6.6633z"/><path d="m33.9951 16.0042c1.104 0 1.999-.8949 1.999-1.999 0-1.104-.895-1.9989-1.999-1.9989s-1.999.8949-1.999 1.9989c0 1.1041.895 1.999 1.999 1.999z"/><path d="m31.9961 41.3247h-15.9919c-5.1427 0-9.3286-4.1845-9.3286-9.3286v-15.9919c0-5.144 4.1859-9.32857 9.3286-9.32857h15.9919c5.1427 0 9.3286 4.18457 9.3286 9.32857v15.9919c0 5.1441-4.1859 9.3286-9.3286 9.3286zm-15.9919-31.98376c-3.6741 0-6.66329 2.98916-6.66329 6.66326v15.9919c0 3.6742 2.98919 6.6633 6.66329 6.6633h15.9919c3.6741 0 6.6633-2.9891 6.6633-6.6633v-15.9919c0-3.6741-2.9892-6.66326-6.6633-6.66326z"/></g></g></svg>