<svg width="41" height="46" viewBox="0 0 41 46" fill="none" xmlns="http://www.w3.org/2000/svg"> <path d="M16.098 17.4664V15.9778C15.4144 15.8628 14.7298 15.8263 14.1633 15.8263C6.45424 15.8263 0 22.0549 0 29.7788C0 34.8494 2.45069 39.1839 6.17623 41.7489C3.58082 39.1561 1.97179 35.5271 1.97179 31.4188C1.97179 23.7084 8.40603 17.4837 16.098 17.4664ZM20.5405 0V30.0443C20.5405 33.98 17.7308 36.5125 14.3138 36.5125C13.1808 36.5125 12.104 36.246 11.169 35.7533C12.3563 37.2793 14.23 38.1573 16.2856 38.1573C19.7026 38.1573 22.5123 35.6258 22.5123 31.6862V1.64101H27.9278C27.7802 1.11765 27.6593 0.571286 27.566 0H20.5405ZM32.99 8.86164C34.7133 10.6512 36.8632 11.7411 39.0292 12.2376V10.8937C36.9936 10.749 34.8647 10.1039 32.99 8.86164Z" fill="#2DCCD3" /> <path d="M32.99 8.86164C31.3239 7.13628 30.0528 4.76008 29.5368 1.64101L27.9278 1.64101C28.8465 5.01313 30.7374 7.36633 32.991 8.86164L32.99 8.86164ZM39.0292 12.2376L39.0292 17.9255C35.9006 17.9255 32.9396 17.3245 30.3308 15.556C33.369 18.6147 37.0536 19.5694 41 19.5694V12.5347C40.3497 12.4906 39.6852 12.3929 39.0282 12.2376H39.0292ZM11.169 35.7533C10.3312 34.6865 9.83131 33.3062 9.83131 31.6853C9.83131 27.138 13.3617 24.735 18.0698 25.2344V17.6188C17.3862 17.5038 16.7016 17.4674 16.1313 17.4674H16.098V23.5905C11.3899 23.0939 7.85953 25.4941 7.85953 30.0452C7.85953 32.7052 9.21055 34.7238 11.169 35.7533ZM28.36 29.5487C28.36 39.1427 21.0708 44.2267 14.2005 44.2267C11.2261 44.2267 8.46316 43.3219 6.17623 41.7489C8.74498 44.3149 12.2791 45.8677 16.1713 45.8677C23.0416 45.8677 30.3308 40.7837 30.3308 31.1897V15.557C29.6472 15.0912 28.9893 14.5477 28.3591 13.9131V29.5497L28.36 29.5487Z" fill="#F1204A" /> <path d="M14.1995 44.2258C21.0698 44.2258 28.3591 39.1417 28.3591 29.5478V13.9112C28.9893 14.5457 29.6463 15.0892 30.3308 15.5551C32.9396 17.3236 35.9006 17.9246 39.0292 17.9246V12.2366C36.8632 11.7401 34.7133 10.6503 32.99 8.86069C30.7364 7.36537 28.8456 5.01217 27.9268 1.64005H22.5113V31.6843C22.5113 35.6239 19.7017 38.1554 16.2846 38.1554C14.229 38.1554 12.3544 37.2774 11.1681 35.7514C9.2096 34.7219 7.85858 32.7033 7.85858 30.0433C7.85858 25.4932 11.3889 23.093 16.097 23.5886V17.4654C8.40508 17.4827 1.97083 23.7074 1.97083 31.4179C1.97083 35.5261 3.57987 39.1551 6.17527 41.748C8.4622 43.3209 11.2252 44.2258 14.1995 44.2258Z" fill="black" /> </svg>