<svg width="48" height="48" viewBox="0 0 48 48" fill="currentColors" xmlns="http://www.w3.org/2000/svg"><path d="M7.99999 0C3.58171 0 0 3.58171 0 7.99999V40C0 44.4183 3.58171 48 7.99999 48H39.9999C44.4182 48 47.9999 44.4183 47.9999 40V7.99999C47.9999 3.58171 44.4182 0 39.9999 0H7.99999ZM10.3839 10.2857H19.4553L25.8973 19.4397L33.7142 10.2857H36.5713L27.1874 21.2723L38.7588 37.7143H29.6897L22.2142 27.0938L13.1428 37.7143H10.2857L20.924 25.2612L10.3839 10.2857ZM14.7589 12.5714L30.8816 35.4286H34.3839L18.2611 12.5714H14.7589Z"/></svg>