<svg fill="none" height="48" viewBox="0 0 48 48" width="48" xmlns="http://www.w3.org/2000/svg"><path d="M47.52 13.93C47.52 13.93 47.05 10.73 45.64 9.31C43.85 7.44 41.84 7.43 40.92 7.32C34.18 6.83 24.01 6.83 24.01 6.83H23.99C23.99 6.83 13.82 6.83 7.08 7.32C6.16 7.43 4.15 7.44 2.36 9.31C0.95 10.73 0.48 13.93 0.48 13.93C0.48 13.93 0 17.7 0 21.47V25.01C0 28.78 0.48 32.55 0.48 32.55C0.48 32.55 0.95 35.75 2.36 37.17C4.15 39.04 6.5 38.97 7.56 39.17C11.28 39.53 24 39.65 24 39.65C24 39.65 34.18 39.64 40.92 39.15C41.84 39.04 43.85 39.04 45.64 37.17C47.05 35.75 47.52 32.55 47.52 32.55C47.52 32.55 48 28.78 48 25.01V21.47C48 17.7 47.52 13.93 47.52 13.93ZM19.04 30.51V16.83L32.01 23.69L19.04 30.51Z" fill="#FF0000"/></svg>